<mxfile host="Electron" modified="2024-12-01T18:12:15.258Z" agent="Mozilla/5.0 (Windows NT 10.0; Win64; x64) AppleWebKit/537.36 (KHTML, like Gecko) draw.io/24.6.4 Chrome/124.0.6367.207 Electron/30.0.6 Safari/537.36" etag="71mnFxXAejzUzZu0jEU7" version="24.6.4" type="device">
  <diagram name="Page-1" id="GTc6Aytv5KaFMeFyF91j">
    <mxGraphModel dx="2049" dy="1194" grid="1" gridSize="10" guides="1" tooltips="1" connect="1" arrows="1" fold="1" page="1" pageScale="1" pageWidth="1169" pageHeight="827" math="0" shadow="0">
      <root>
        <mxCell id="0" />
        <mxCell id="1" parent="0" />
        <mxCell id="1s0qY70WQgLtpSAVRojE-14" style="edgeStyle=orthogonalEdgeStyle;rounded=0;orthogonalLoop=1;jettySize=auto;html=1;" edge="1" parent="1" source="1s0qY70WQgLtpSAVRojE-1" target="1s0qY70WQgLtpSAVRojE-13">
          <mxGeometry relative="1" as="geometry" />
        </mxCell>
        <mxCell id="1s0qY70WQgLtpSAVRojE-1" value="Project A" style="image;aspect=fixed;html=1;points=[];align=center;fontSize=12;image=img/lib/azure2/devops/Azure_DevOps.svg;" vertex="1" parent="1">
          <mxGeometry x="50" y="60" width="44" height="44" as="geometry" />
        </mxCell>
        <mxCell id="1s0qY70WQgLtpSAVRojE-2" value="PowerBI Reports" style="image;aspect=fixed;html=1;points=[];align=center;fontSize=12;image=img/lib/azure2/analytics/Power_BI_Embedded.svg;" vertex="1" parent="1">
          <mxGeometry x="592" y="118" width="60" height="80" as="geometry" />
        </mxCell>
        <mxCell id="1s0qY70WQgLtpSAVRojE-3" value="Azure Table Storage" style="image;aspect=fixed;html=1;points=[];align=center;fontSize=12;image=img/lib/azure2/general/Table.svg;" vertex="1" parent="1">
          <mxGeometry x="410" y="138" width="73.85" height="60" as="geometry" />
        </mxCell>
        <mxCell id="1s0qY70WQgLtpSAVRojE-4" value="Project B" style="image;aspect=fixed;html=1;points=[];align=center;fontSize=12;image=img/lib/azure2/devops/Azure_DevOps.svg;" vertex="1" parent="1">
          <mxGeometry x="50" y="148" width="44" height="44" as="geometry" />
        </mxCell>
        <mxCell id="1s0qY70WQgLtpSAVRojE-5" value="Project C" style="image;aspect=fixed;html=1;points=[];align=center;fontSize=12;image=img/lib/azure2/devops/Azure_DevOps.svg;" vertex="1" parent="1">
          <mxGeometry x="50" y="240" width="44" height="44" as="geometry" />
        </mxCell>
        <mxCell id="1s0qY70WQgLtpSAVRojE-6" value="Console App" style="verticalLabelPosition=bottom;html=1;verticalAlign=top;align=center;strokeColor=none;fillColor=#00BEF2;shape=mxgraph.azure.computer;pointerEvents=1;" vertex="1" parent="1">
          <mxGeometry x="240" y="140" width="70" height="60" as="geometry" />
        </mxCell>
        <mxCell id="1s0qY70WQgLtpSAVRojE-11" style="edgeStyle=orthogonalEdgeStyle;rounded=0;orthogonalLoop=1;jettySize=auto;html=1;entryX=-0.014;entryY=0.544;entryDx=0;entryDy=0;entryPerimeter=0;" edge="1" parent="1" source="1s0qY70WQgLtpSAVRojE-6" target="1s0qY70WQgLtpSAVRojE-3">
          <mxGeometry relative="1" as="geometry" />
        </mxCell>
        <mxCell id="1s0qY70WQgLtpSAVRojE-12" style="edgeStyle=orthogonalEdgeStyle;rounded=0;orthogonalLoop=1;jettySize=auto;html=1;entryX=-0.047;entryY=0.632;entryDx=0;entryDy=0;entryPerimeter=0;" edge="1" parent="1" source="1s0qY70WQgLtpSAVRojE-3" target="1s0qY70WQgLtpSAVRojE-2">
          <mxGeometry relative="1" as="geometry" />
        </mxCell>
        <mxCell id="1s0qY70WQgLtpSAVRojE-13" value="" style="verticalLabelPosition=bottom;verticalAlign=top;html=1;shape=mxgraph.flowchart.or;" vertex="1" parent="1">
          <mxGeometry x="170" y="157" width="26" height="26" as="geometry" />
        </mxCell>
        <mxCell id="1s0qY70WQgLtpSAVRojE-15" style="edgeStyle=orthogonalEdgeStyle;rounded=0;orthogonalLoop=1;jettySize=auto;html=1;entryX=0;entryY=0.5;entryDx=0;entryDy=0;entryPerimeter=0;" edge="1" parent="1" source="1s0qY70WQgLtpSAVRojE-4" target="1s0qY70WQgLtpSAVRojE-13">
          <mxGeometry relative="1" as="geometry" />
        </mxCell>
        <mxCell id="1s0qY70WQgLtpSAVRojE-16" style="edgeStyle=orthogonalEdgeStyle;rounded=0;orthogonalLoop=1;jettySize=auto;html=1;entryX=0.5;entryY=1;entryDx=0;entryDy=0;entryPerimeter=0;" edge="1" parent="1" source="1s0qY70WQgLtpSAVRojE-5" target="1s0qY70WQgLtpSAVRojE-13">
          <mxGeometry relative="1" as="geometry" />
        </mxCell>
        <mxCell id="1s0qY70WQgLtpSAVRojE-17" style="edgeStyle=orthogonalEdgeStyle;rounded=0;orthogonalLoop=1;jettySize=auto;html=1;entryX=0;entryY=0.5;entryDx=0;entryDy=0;entryPerimeter=0;" edge="1" parent="1" source="1s0qY70WQgLtpSAVRojE-13" target="1s0qY70WQgLtpSAVRojE-6">
          <mxGeometry relative="1" as="geometry" />
        </mxCell>
        <mxCell id="1s0qY70WQgLtpSAVRojE-18" value="" style="image;aspect=fixed;html=1;points=[];align=center;fontSize=12;image=img/lib/azure2/general/Dev_Console.svg;" vertex="1" parent="1">
          <mxGeometry x="261.5" y="154" width="25" height="20" as="geometry" />
        </mxCell>
      </root>
    </mxGraphModel>
  </diagram>
</mxfile>
